<svg width="200" height="195" viewBox="0 0 200 195" fill="none" xmlns="http://www.w3.org/2000/svg">
<path d="M76.0057 112.712C96.022 112.712 112.248 96.4549 112.248 76.4003C112.248 56.3456 96.022 40.0881 76.0057 40.0881C55.9894 40.0881 39.763 56.3456 39.763 76.4003C39.763 96.4549 55.9894 112.712 76.0057 112.712Z" fill="white"/>
<path fill-rule="evenodd" clip-rule="evenodd" d="M136.16 122.13C122.369 140.312 100.556 152.051 76.0057 152.051C34.3051 152.051 0.5 118.181 0.5 76.4003C0.5 34.6198 34.3051 0.75 76.0057 0.75C104.974 0.75 130.133 17.095 142.795 41.0823L120.222 48.5814V48.561L119.3 48.7342C110.179 34.4371 94.1974 24.9581 76.0057 24.9581C47.6493 24.9581 24.6618 47.9895 24.6618 76.4003C24.6618 104.811 47.6493 127.842 76.0057 127.842C92.2878 127.842 106.8 120.249 116.206 108.404L136.108 122.154L136.16 122.13ZM136.343 122.047L136.41 122.093L136.487 121.981L136.343 122.047Z" fill="#CBC9C9"/>
<path d="M116.779 107.568C116.537 108.107 115.873 108.779 115.873 108.779L134.9 123.606L136.41 122.093L138.524 119.067C138.524 119.067 141.544 112.41 141.925 111.199C142.306 109.989 143.356 105.753 143.356 105.753H117.383C117.383 105.753 117.026 107.019 116.779 107.568Z" fill="#CBC9C9"/>
<path d="M158.593 161.921H199.269V183H115.611L147.23 143.147C155.958 132.278 174.237 110.705 174.237 96.7072C174.237 87.8145 168.474 76.6162 158.263 76.6162C147.394 76.6162 142.454 88.4732 142.948 97.86H117.258C118.905 73.9813 132.573 55.537 158.099 55.537C180.825 55.537 198.446 72.8285 198.446 95.5545C198.446 113.834 188.235 127.503 176.872 140.677L158.593 161.921Z" fill="#838383"/>
</svg>
